<?xml version="1.0" ?><svg fill="none" height="96" viewBox="0 0 96 96" width="96" xmlns="http://www.w3.org/2000/svg"><path clip-rule="evenodd" d="M58 12H67.7143L52.8571 38L70 68H52L49.7143 64H58L48 46.5L38 64H46.2857L44 68H26L43.1429 38L28.2857 12H38L48 29.5L58 12Z" fill="#139154" fill-rule="evenodd"/><path clip-rule="evenodd" d="M69.4441 10.9961C69.802 11.6128 69.8045 12.3733 69.4508 12.9923L55.1606 38L71.7365 67.0077C72.0902 67.6267 72.0877 68.3872 71.7298 69.0039C71.372 69.6205 70.7129 70 70 70H52C51.2823 70 50.6196 69.6154 50.2635 68.9923L48 65.0311L45.7365 68.9923C45.3804 69.6154 44.7177 70 44 70H26C25.2871 70 24.628 69.6205 24.2702 69.0039C23.9123 68.3872 23.9098 67.6267 24.2635 67.0077L40.8394 38L26.5492 12.9923C26.1955 12.3733 26.198 11.6128 26.5559 10.9961C26.9137 10.3795 27.5728 10 28.2857 10H38C38.7177 10 39.3804 10.3846 39.7365 11.0077L48 25.4689L56.2635 11.0077C56.6196 10.3846 57.2823 10 58 10H67.7143C68.4272 10 69.0863 10.3795 69.4441 10.9961ZM48 29.5L38 12H28.2857L43.1429 38L26 68H44L46.2857 64H38L48 46.5L58 64H49.7143L52 68H70L52.8571 38L67.7143 12H58L48 29.5ZM54.5536 62L48 50.5311L41.4464 62H46.2857C46.9885 62 47.6388 62.3687 48 62.9698C48.3612 62.3687 49.0115 62 49.7143 62H54.5536Z" fill="#02532C" fill-rule="evenodd"/><path clip-rule="evenodd" d="M28 8H10L27.3039 38.2819C31.0788 34.6836 35.7904 32.0594 41.0357 30.8125L28 8ZM54.9643 30.8125C60.2096 32.0594 64.9212 34.6836 68.6961 38.2819L86 8H68L54.9643 30.8125Z" fill="#38C682" fill-rule="evenodd"/><path clip-rule="evenodd" d="M8.27018 6.99615C8.62802 6.37952 9.28706 6 10 6H28C28.7177 6 29.3804 6.38457 29.7365 7.00772L42.7722 29.8202C43.0849 30.3674 43.1214 31.03 42.8707 31.6082C42.62 32.1863 42.1114 32.6126 41.4983 32.7583C36.6064 33.9212 32.2091 36.3692 28.6839 39.7296C28.2388 40.1538 27.6232 40.3498 27.0148 40.2609C26.4063 40.172 25.8725 39.8081 25.5675 39.2742L8.26351 8.99228C7.9098 8.37327 7.91234 7.61278 8.27018 6.99615ZM53.1293 31.6082C52.8786 31.03 52.9151 30.3674 53.2278 29.8202L66.2635 7.00772C66.6196 6.38457 67.2823 6 68 6H86C86.7129 6 87.372 6.37952 87.7298 6.99615C88.0877 7.61278 88.0902 8.37327 87.7365 8.99228L70.4325 39.2742C70.1275 39.8081 69.5937 40.172 68.9852 40.2609C68.3768 40.3498 67.7612 40.1538 67.3161 39.7296C63.7909 36.3692 59.3936 33.9212 54.5017 32.7583C53.8886 32.6126 53.38 32.1863 53.1293 31.6082ZM10 8L27.3039 38.2819C27.7971 37.8118 28.3063 37.3583 28.8306 36.9223C31.8044 34.4494 35.2638 32.5404 39.0447 31.3594C39.699 31.155 40.363 30.9724 41.0357 30.8125L28 8H10ZM67.1695 36.9223C67.6937 37.3583 68.2029 37.8118 68.6961 38.2819L86 8H68L54.9643 30.8125C55.637 30.9724 56.3009 31.155 56.9553 31.3594C60.7362 32.5404 64.1956 34.4494 67.1695 36.9223Z" fill="#02532C" fill-rule="evenodd"/><path clip-rule="evenodd" d="M12.4982 9.13489C12.9759 8.8578 13.5879 9.02046 13.865 9.4982L28.365 34.4982C28.642 34.9759 28.4794 35.5879 28.0016 35.865C27.5239 36.142 26.912 35.9794 26.6349 35.5016L12.1349 10.5016C11.8578 10.0239 12.0205 9.41198 12.4982 9.13489Z" fill="#4EE99E" fill-rule="evenodd"/><path clip-rule="evenodd" d="M69.4984 9.13302C69.9772 9.40832 70.1421 10.0196 69.8668 10.4984L58.3668 30.4984C58.0915 30.9772 57.4802 31.1421 57.0015 30.8668C56.5227 30.5915 56.3577 29.9802 56.633 29.5015L68.133 9.50145C68.4083 9.02267 69.0196 8.85772 69.4984 9.13302Z" fill="#4EE99E" fill-rule="evenodd"/><path d="M76 60C76 75.464 63.464 88 48 88C32.536 88 20 75.464 20 60C20 44.536 32.536 32 48 32C63.464 32 76 44.536 76 60Z" fill="#C27C3B"/><path clip-rule="evenodd" d="M78 60C78 76.5685 64.5685 90 48 90C31.4315 90 18 76.5685 18 60C18 43.4315 31.4315 30 48 30C64.5685 30 78 43.4315 78 60ZM48 88C63.464 88 76 75.464 76 60C76 44.536 63.464 32 48 32C32.536 32 20 44.536 20 60C20 75.464 32.536 88 48 88Z" fill="#672001" fill-rule="evenodd"/><path d="M71 60C71 72.7025 60.7025 83 48 83C35.2975 83 25 72.7025 25 60C25 47.2975 35.2975 37 48 37C60.7025 37 71 47.2975 71 60Z" fill="#FCCA9B"/><path d="M62.6621 78.1571C62.821 79.2501 62.0636 80.2651 60.9705 80.4239C59.8775 80.5828 58.8625 79.8255 58.7037 78.7324C58.5448 77.6393 59.3021 76.6244 60.3952 76.4655C61.4883 76.3066 62.5032 77.064 62.6621 78.1571Z" fill="#F2B275"/><path d="M61.8169 72.3414C61.9659 73.3671 61.2553 74.3194 60.2297 74.4685C59.204 74.6175 58.2517 73.9069 58.1027 72.8813C57.9536 71.8556 58.6642 70.9033 59.6899 70.7543C60.7155 70.6052 61.6678 71.3158 61.8169 72.3414Z" fill="#F2B275"/><path d="M70.1846 66.4843C70.3037 67.3041 69.7357 68.0653 68.9159 68.1845C68.0961 68.3036 67.3349 67.7356 67.2157 66.9158C67.0966 66.096 67.6646 65.3348 68.4844 65.2157C69.3042 65.0965 70.0654 65.6645 70.1846 66.4843Z" fill="#F2B275"/><path d="M51.9201 80.7288C52.079 81.8219 51.3217 82.8368 50.2286 82.9957C49.1355 83.1546 48.1206 82.3972 47.9617 81.3042C47.8029 80.2111 48.5602 79.1962 49.6533 79.0373C50.7464 78.8784 51.7613 79.6358 51.9201 80.7288Z" fill="#F2B275"/><path d="M67.2349 70.6159C67.3782 71.6024 66.6947 72.5183 65.7083 72.6617C64.7218 72.8051 63.8058 72.1216 63.6624 71.1351C63.5191 70.1486 64.2025 69.2326 65.189 69.0893C66.1755 68.9459 67.0915 69.6294 67.2349 70.6159Z" fill="#F2B275"/><path d="M66.123 63.9895C66.2025 64.5361 65.8238 65.0435 65.2773 65.123C64.7307 65.2024 64.2233 64.8237 64.1438 64.2772C64.0644 63.7307 64.4431 63.2232 64.9896 63.1438C65.5361 63.0643 66.0436 63.443 66.123 63.9895Z" fill="#F2B275"/><path d="M54.1233 76.9895C54.2027 77.5361 53.824 78.0435 53.2775 78.123C52.731 78.2024 52.2235 77.8237 52.1441 77.2772C52.0646 76.7307 52.4433 76.2232 52.9898 76.1438C53.5364 76.0643 54.0438 76.443 54.1233 76.9895Z" fill="#F2B275"/><path d="M67.3225 75.4585C67.4019 76.0051 67.0233 76.5125 66.4767 76.592C65.9302 76.6714 65.4227 76.2927 65.3433 75.7462C65.2639 75.1997 65.6425 74.6922 66.1891 74.6128C66.7356 74.5333 67.2431 74.912 67.3225 75.4585Z" fill="#F2B275"/><path d="M56.123 79.9895C56.2025 80.5361 55.8238 81.0435 55.2773 81.123C54.7307 81.2024 54.2233 80.8237 54.1438 80.2772C54.0644 79.7307 54.4431 79.2232 54.9896 79.1438C55.5361 79.0643 56.0436 79.443 56.123 79.9895Z" fill="#F2B275"/><path d="M45.137 82.7251C45.2164 83.2717 44.8377 83.7791 44.2912 83.8586C43.7446 83.938 43.2372 83.5593 43.1577 83.0128C43.0783 82.4663 43.457 81.9588 44.0035 81.8794C44.5501 81.7999 45.0575 82.1786 45.137 82.7251Z" fill="#F2B275"/><path clip-rule="evenodd" d="M48 37C35.2975 37 25 47.2975 25 60C25 72.7025 35.2975 83 48 83C60.7025 83 71 72.7025 71 60C71 47.2975 60.7025 37 48 37ZM23 60C23 46.1929 34.1929 35 48 35C61.8071 35 73 46.1929 73 60C73 73.8071 61.8071 85 48 85C34.1929 85 23 73.8071 23 60Z" fill="#A55833" fill-rule="evenodd"/><path clip-rule="evenodd" d="M48 35C34.1929 35 23 46.1929 23 60C23 60.5523 22.5523 61 22 61C21.4477 61 21 60.5523 21 60C21 45.0883 33.0883 33 48 33C48.5523 33 49 33.4477 49 34C49 34.5523 48.5523 35 48 35Z" fill="#EC9F58" fill-rule="evenodd"/><path d="M65 60C65 69.3888 57.3888 77 48 77C38.6112 77 31 69.3888 31 60C31 50.6112 38.6112 43 48 43C57.3888 43 65 50.6112 65 60Z" fill="#F6B981"/><path clip-rule="evenodd" d="M67 60C67 70.4934 58.4934 79 48 79C37.5066 79 29 70.4934 29 60C29 49.5066 37.5066 41 48 41C58.4934 41 67 49.5066 67 60ZM48 77C57.3888 77 65 69.3888 65 60C65 50.6112 57.3888 43 48 43C38.6112 43 31 50.6112 31 60C31 69.3888 38.6112 77 48 77Z" fill="#A55833" fill-rule="evenodd"/><path clip-rule="evenodd" d="M48 45C39.7157 45 33 51.7157 33 60C33 60.5523 32.5523 61 32 61C31.4477 61 31 60.5523 31 60C31 50.6112 38.6112 43 48 43C48.5523 43 49 43.4477 49 44C49 44.5523 48.5523 45 48 45Z" fill="#FFEFDF" fill-rule="evenodd"/><path d="M38 57.6L44.25 56.3333L46.125 53.1667L48 50L51.75 56.3333L58 57.6L53 62.6667L54.25 69L48 65.8333L41.75 69L43 62.6667L38 57.6Z" fill="#FFD2B1"/><path clip-rule="evenodd" d="M44.25 56.3333L48 50L51.75 56.3333L58 57.6L53 62.6667L54.25 69L48 65.8333L41.75 69L43 62.6667L38 57.6L44.25 56.3333ZM40.8329 63.318L36.5765 59.0048C36.0607 58.4822 35.8728 57.7189 36.087 57.0165C36.3013 56.3142 36.8831 55.7857 37.6028 55.6399L42.9819 54.5497L46.2791 48.981C46.6391 48.3729 47.2934 48 48 48C48.7067 48 49.361 48.3729 49.721 48.981L53.0182 54.5497L58.3973 55.6399C59.117 55.7857 59.6988 56.3142 59.9131 57.0165C60.1273 57.7189 59.9394 58.4822 59.4236 59.0048L55.1672 63.318L56.2122 68.6127C56.3603 69.3631 56.0675 70.1323 55.4578 70.5942C54.8481 71.056 54.0284 71.1298 53.3461 70.7841L48 68.0754L42.654 70.7841C41.9717 71.1298 41.152 71.056 40.5423 70.5942C39.9326 70.1323 39.6398 69.3631 39.7879 68.6127L40.8329 63.318Z" fill="#964F2E" fill-rule="evenodd"/><path d="M77 12C77 12.5523 76.5523 13 76 13C75.4477 13 75 12.5523 75 12C75 11.4477 75.4477 11 76 11C76.5523 11 77 11.4477 77 12Z" fill="#1DAE69"/><path d="M81 12C81 12.5523 80.5523 13 80 13C79.4477 13 79 12.5523 79 12C79 11.4477 79.4477 11 80 11C80.5523 11 81 11.4477 81 12Z" fill="#1DAE69"/><path d="M76 22C76 22.5523 75.5523 23 75 23C74.4477 23 74 22.5523 74 22C74 21.4477 74.4477 21 75 21C75.5523 21 76 21.4477 76 22Z" fill="#1DAE69"/><path d="M72 28C72 28.5523 71.5523 29 71 29C70.4477 29 70 28.5523 70 28C70 27.4477 70.4477 27 71 27C71.5523 27 72 27.4477 72 28Z" fill="#1DAE69"/><path d="M73 15C73 15.5523 72.5523 16 72 16C71.4477 16 71 15.5523 71 15C71 14.4477 71.4477 14 72 14C72.5523 14 73 14.4477 73 15Z" fill="#1DAE69"/><path d="M77 17.5C77 18.3284 76.3284 19 75.5 19C74.6716 19 74 18.3284 74 17.5C74 16.6716 74.6716 16 75.5 16C76.3284 16 77 16.6716 77 17.5Z" fill="#1DAE69"/><path d="M73 22.5C73 23.3284 72.3284 24 71.5 24C70.6716 24 70 23.3284 70 22.5C70 21.6716 70.6716 21 71.5 21C72.3284 21 73 21.6716 73 22.5Z" fill="#1DAE69"/></svg>