<?xml version="1.0" ?><svg id="Layer_1" style="enable-background:new 0 0 100 100;" version="1.1" viewBox="0 0 100 100" xml:space="preserve" xmlns="http://www.w3.org/2000/svg" xmlns:xlink="http://www.w3.org/1999/xlink"><style type="text/css">
	.st0{fill:none;stroke:#000000;stroke-width:2;stroke-linecap:round;stroke-linejoin:round;stroke-miterlimit:10;}
</style><path d="M89.07227,10.10156c-0.49902-0.24219-1.0957-0.03027-1.33496,0.46582l-7.28894,15.11816H19.3866l-7.28894-15.11816  c-0.23926-0.49609-0.83301-0.7041-1.33496-0.46582c-0.49707,0.23926-0.70605,0.83691-0.46582,1.33496l7.46191,15.47699v62.08844  c0,0.55273,0.44727,1,1,1h62.31738c0.55273,0,1-0.44727,1-1V26.91351l7.46191-15.47699  C89.77832,10.93848,89.56934,10.34082,89.07227,10.10156z M44.5,27.68555h10.41699v19.98047H44.5V27.68555z M80.07617,88.00195  H19.75879V27.68555H42.5v20.98047c0,0.55273,0.44727,1,1,1h12.41699c0.55273,0,1-0.44727,1-1V27.68555h23.15918V88.00195z"/></svg>