<?xml version="1.0" ?><svg height="42px" version="1.1" viewBox="0 0 42 42" width="42px" xmlns="http://www.w3.org/2000/svg" xmlns:xlink="http://www.w3.org/1999/xlink"><title/><desc/><g fill="none" fill-rule="evenodd" id="shopping" stroke="none" stroke-width="1"><g fill="#000000" fill-rule="nonzero" id="shopping_bag" transform="translate(-4.000000, -4.000000)"><path d="M25,6.25 C28.6486046,6.25 31.6210814,9.14484695 31.7459181,12.7630284 L31.75,13 L31.75,16.25 L37,16.25 C37.9181734,16.25 38.6711923,16.9571103 38.7441988,17.8564728 L38.75,18 L38.75,40 C38.75,42.0710678 37.0710678,43.75 35,43.75 L35,43.75 L15,43.75 C12.9289322,43.75 11.25,42.0710678 11.25,40 L11.25,40 L11.25,18 C11.25,17.0335017 12.0335017,16.25 13,16.25 L13,16.25 L18.25,16.25 L18.25,13 C18.25,9.27207794 21.2720779,6.25 25,6.25 Z M37.25,37.25 L12.75,37.25 L12.75,40 C12.75,41.190864 13.6751616,42.1656449 14.8459512,42.2448092 L15,42.25 L35,42.25 C36.2426407,42.25 37.25,41.2426407 37.25,40 L37.25,40 L37.25,37.25 Z M18.25,17.75 L13,17.75 C12.8619288,17.75 12.75,17.8619288 12.75,18 L12.75,18 L12.75,35.75 L37.25,35.75 L37.25,18 C37.25,17.8816533 37.1677666,17.7825132 37.0573227,17.7566027 L37,17.75 L31.75,17.75 L31.75,23 C31.75,23.4142136 31.4142136,23.75 31,23.75 C30.6203042,23.75 30.306509,23.4678461 30.2568466,23.1017706 L30.25,23 L30.25,17.75 L19.75,17.75 L19.75,23 C19.75,23.4142136 19.4142136,23.75 19,23.75 C18.6203042,23.75 18.306509,23.4678461 18.2568466,23.1017706 L18.25,23 L18.25,17.75 Z M25,7.75 C22.1729924,7.75 19.8678684,9.98444888 19.754379,12.7835954 L19.75,13 L19.75,16.25 L30.25,16.25 L30.25,13 C30.25,10.1005051 27.8994949,7.75 25,7.75 Z"/></g></g></svg>