<?xml version="1.0" ?><svg id="Layer_1" style="enable-background:new 0 0 1024 1024;" version="1.1" viewBox="0 0 1024 1024" xml:space="preserve" xmlns="http://www.w3.org/2000/svg" xmlns:xlink="http://www.w3.org/1999/xlink"><g id="XMLID_3_"><g id="XMLID_1_"><g id="XMLID_21_"><path d="M712.7,277.3c0,5.6-0.2,11.2-0.6,16.8c-0.2,2.8-0.5,5.5-0.8,8.3c-0.2,1.7,0.4,5.3,0,0.1     c0.1,1.7-0.5,3.8-0.8,5.4c-1.8,11.1-4.5,22.1-8,32.8c-1.7,5.1-3.6,10.1-5.5,15c-1.7,4.3,1.9-4.1-0.1,0.1     c-0.5,1.2-1.1,2.4-1.6,3.6c-1.3,2.8-2.6,5.6-4.1,8.3c-4.8,9.4-10.3,18.4-16.4,27c-1.3,1.9-2.8,4.9-4.7,6.3     c3.5-2.7,1.1-1.4-0.1,0.1c-0.8,1-1.6,2-2.5,3c-3.6,4.4-7.4,8.6-11.4,12.6c-3.6,3.8-7.4,7.4-11.3,10.9c-2,1.7-3.9,3.5-5.9,5.1     c-1,0.8-2,1.7-3,2.5c-0.7,0.5-1.4,1.1-2.1,1.6c2.3-1.8,2.6-2,0.9-0.7c-8.5,6.3-17.2,12.1-26.4,17.1c-4.6,2.6-9.3,4.9-14.1,7.2     c-1.2,0.6-2.4,1.1-3.6,1.6c-4.3,1.9,4.2-1.7-0.1,0.1c-2.9,1.2-5.8,2.3-8.7,3.4c-10.6,3.8-21.4,6.8-32.4,9c-2.7,0.5-5.4,1-8.1,1.4     c-1.2,0.2-2.8,0.7-4.1,0.6c4,0.3,2.8-0.4,1.2-0.2c-6,0.6-12,1.2-18,1.4c-11.7,0.4-23.2-0.2-34.8-1.4c-4.8-0.5,4.6,0.7-0.1,0     c-1.4-0.2-2.7-0.4-4.1-0.6c-2.7-0.4-5.4-0.9-8-1.5c-5.7-1.2-11.4-2.6-17.1-4.2c-5.1-1.5-10.2-3.1-15.3-5     c-2.1-0.8-4.2-1.6-6.2-2.4c-0.4-0.2-0.8-0.3-1.2-0.5c-2-0.8-1.6-0.7,1.1,0.5c-1.3,0-3.7-1.6-4.8-2.2c-10-4.6-19.6-9.9-28.8-16     c-2.2-1.4-4.4-2.9-6.5-4.4c-1.9-1.3-4.9-2.8-6.3-4.7c2.7,3.5,1.4,1.1-0.1-0.1c-1-0.8-2-1.6-3-2.5c-2.3-2-4.7-4-6.9-6     c-7.8-7-15-14.6-21.7-22.6c-0.8-1-1.7-2-2.5-3c-1.2-1.5-3.7-2.8-0.1-0.1c-1.8-1.4-3.3-4.5-4.7-6.3c-3.3-4.6-6.4-9.4-9.3-14.3     c-2.7-4.5-5.3-9.1-7.6-13.9c-1.2-2.4-2.3-4.7-3.5-7.1c-0.6-1.2-1.1-2.4-1.6-3.6c-0.9-2-0.7-1.6,0.4,1.1c-0.3-0.8-0.7-1.6-1-2.5     c-4-9.9-7.3-20.2-9.8-30.6c-1.3-5.3-2.4-10.6-3.2-16c-0.2-1.4-0.4-2.7-0.6-4.1c-0.7-4.8,0.5,4.7,0-0.1c-0.3-3.2-0.7-6.4-0.9-9.6     c-0.9-11.6-0.8-23.3,0.1-34.9c0.2-2.8,0.5-5.5,0.8-8.3c0.5-4.8-0.7,4.6,0-0.1c0.2-1.4,0.4-2.7,0.6-4.1c1-5.8,2.1-11.6,3.6-17.3     c2.6-10.4,6-20.6,10-30.5c1.7-4.3-1.9,4.1,0.1-0.1c0.5-1.2,1.1-2.4,1.6-3.6c1.1-2.4,2.3-4.8,3.5-7.1c2.6-5.1,5.4-10.1,8.3-15     c2.7-4.5,5.6-8.9,8.7-13.2c1.3-1.9,2.8-4.9,4.7-6.3c-3.5,2.7-1.1,1.4,0.1-0.1c1.1-1.4,2.2-2.7,3.3-4c6.7-8,14.1-15.5,21.9-22.5     c2-1.7,3.9-3.5,5.9-5.1c1-0.8,2-1.7,3-2.5c1.5-1.2,2.8-3.7,0.1-0.1c1.4-1.8,4.5-3.3,6.3-4.7c2.5-1.8,5-3.5,7.6-5.2     c9.2-6,18.9-11.3,28.9-15.8c0.8-0.4,2.7-1.6,3.6-1.6c-0.8,0.3-1.6,0.7-2.3,1c0.8-0.3,1.6-0.7,2.5-1c2.1-0.8,4.1-1.6,6.2-2.4     c5.4-2,11-3.8,16.6-5.4c5.2-1.5,10.5-2.7,15.8-3.8c2.7-0.5,5.4-1,8-1.5c1.4-0.2,2.7-0.4,4.1-0.6c2.2-0.3,1.8-0.3-1.2,0.2     c0.9-0.1,1.8-0.2,2.7-0.3c11.6-1.3,23.2-1.7,34.9-1.2c5.3,0.2,10.6,0.7,15.9,1.3c1.8,0.2,4.1-0.4-0.5-0.1     c1.2-0.1,2.8,0.4,4.1,0.6c3.1,0.5,6.3,1.1,9.4,1.7c11,2.2,21.8,5.3,32.3,9.2c2.5,0.9,5,1.9,7.4,2.9c4.3,1.7-4.1-1.9,0.1,0.1     c1.2,0.5,2.4,1.1,3.6,1.6c5.2,2.4,10.3,5,15.3,7.8c4.6,2.6,9.1,5.3,13.5,8.2c1.8,1.2,3.6,2.4,5.4,3.7c2.2,1.5,5.8,3.3,7.4,5.4     c-2.7-3.5-1.4-1.1,0.1,0.1c1,0.8,2,1.6,3,2.5c2,1.7,4,3.4,5.9,5.1c4.2,3.8,8.3,7.7,12.2,11.8c3.6,3.8,7.1,7.7,10.5,11.7     c0.8,1,1.7,2,2.5,3c1.2,1.5,3.7,2.8,0.1,0.1c2.1,1.6,3.9,5.2,5.4,7.4c6,8.6,11.5,17.7,16.2,27.1c1.2,2.4,2.3,4.7,3.5,7.1     c0.6,1.2,1.1,2.4,1.6,3.6c1.9,4.3-1.7-4.2,0.1,0.1c2.1,5.4,4.2,10.8,5.9,16.3c3.4,10.7,6.1,21.7,7.8,32.9     c0.2,1.2,0.7,2.8,0.6,4.1c0.4-5.1-0.2-1.5,0,0.1c0.3,2.8,0.6,5.5,0.8,8.3C712.4,266.1,712.6,271.7,712.7,277.3     c0,10.5,9.2,20.5,20,20c10.8-0.5,20-8.8,20-20c-0.2-49-15.1-98.2-43.7-138.2c-28.9-40.4-68.7-71-115.3-88.2     c-46.7-17.2-99.5-18.8-147.3-5.2c-46.1,13.1-88.5,40.4-119,77.4c-32.1,39.1-51.3,86.3-55.3,136.7c-3.9,49.2,8.4,99.8,34,142     c24.7,40.7,61.9,74.5,105.5,94.1C458.4,517,510.1,523,560.6,513c47.2-9.4,91.5-34.1,124.8-68.8c33.4-34.8,56.6-79.9,64-127.7     c2-13,3.3-26.1,3.3-39.2c0-10.5-9.2-20.5-20-20C721.8,257.8,712.7,266.1,712.7,277.3z" id="XMLID_25_"/></g></g><g id="XMLID_2_"><g id="XMLID_15_"><path d="M841.5,947.4c-8.6,0-17.1,0-25.7,0c-22.7,0-45.5,0-68.2,0c-32.5,0-65,0-97.5,0c-37.9,0-75.7,0-113.6,0     c-38.8,0-77.5,0-116.3,0c-35.3,0-70.6,0-105.8,0c-27.4,0-54.7,0-82.1,0c-15,0-30,0-45.1,0c-1.3,0-2.6,0-3.9,0c-0.2,0-0.5,0-0.7,0     c-0.9,0-1.9,0-2.8-0.1c0.2,0-2.7-0.1-2.7-0.2c-0.1-0.2,5.2,1,1.3,0.1c-1.7-0.4-3.5-0.8-5.2-1.3c-0.6-0.2-1.3-0.6-1.9-0.6     c-2.5-0.4,3.3,1.9,1.1,0.5c-1.3-0.8-2.7-1.4-4-2.1c-1.3-0.8-2.5-1.7-3.8-2.5c-1.9-1.1,1.6,1,1.5,1.2c-0.1,0.1-2.2-1.9-2.4-2.1     c-1.1-1-2.1-2.2-3.1-3.3c-2.4-2.4,1.9,3.2-0.4-0.6c-0.8-1.3-1.6-2.5-2.4-3.9c-0.4-0.8-0.8-1.6-1.2-2.3c-1.5-2.9,0.5,1.2,0.5,1.2     c-0.9,0.1-2-8.1-2.5-9c1.4,2.6,0.3,3.4,0.2,1.3c0-0.9-0.1-1.8-0.2-2.8c0-0.5,0-1,0-1.5c0-1.1,0-2.1,0-3.2c0-32.4,0-64.8,0-97.3     c0-4.5,0-8.9,0-13.4c0-10.1,1.6-20,1.8-30c0,0-0.6,4.2-0.3,1.9c0.1-0.9,0.3-1.8,0.4-2.7c0.2-1.6,0.5-3.2,0.8-4.7     c0.6-3.4,1.2-6.7,2-10c1.4-6.4,3.1-12.7,5-18.9c2-6.4,4.3-12.6,6.8-18.8c1.3-3.3-1.7,3.9,0.3-0.7c0.6-1.4,1.3-2.8,1.9-4.2     c1.4-3,2.9-6,4.4-8.9c6-11.5,13-22.3,20.7-32.8c2.1-2.8-2.4,2.9,0.5-0.6c1-1.2,1.9-2.4,2.9-3.6c2.1-2.5,4.2-5,6.4-7.4     c4.4-4.9,9-9.5,13.8-14c4.6-4.3,9.5-8.4,14.4-12.4c2.7-2.2-3,2.2,0.6-0.5c1.2-0.9,2.5-1.8,3.7-2.7c2.8-2,5.7-4,8.7-5.9     c10.7-7,22-12.9,33.6-18.2c3.2-1.5-3.5,1.4,0.7-0.3c1.4-0.6,2.9-1.2,4.3-1.7c3.3-1.3,6.7-2.5,10.1-3.6c6.2-2,12.4-3.8,18.8-5.3     c6.4-1.5,12.9-2.8,19.4-3.8c0.7-0.1,2-0.5,2.7-0.4c0.1,0-4.2,0.5-1.9,0.3c1.6-0.2,3.2-0.4,4.8-0.5c3.7-0.4,7.4-0.7,11.1-0.9     c7.6-0.4,15.3-0.3,22.9-0.3c28.1,0,56.2,0,84.3,0c38.2,0,76.3,0,114.5,0c25.9,0,51.8,0,77.7,0c2,0,3.9,0,5.9,0     c9.9,0,19.7,1.6,29.5,1.8c0,0-4.2-0.6-1.9-0.3c0.9,0.1,1.8,0.3,2.7,0.4c1.6,0.2,3.2,0.5,4.7,0.8c3.4,0.6,6.7,1.2,10,2     c6.4,1.4,12.7,3.1,18.9,5c6.4,2,12.6,4.3,18.8,6.8c3.3,1.3-3.9-1.7,0.7,0.3c1.4,0.6,2.8,1.3,4.2,1.9c3,1.4,6,2.9,8.9,4.4     c11.5,6,22.3,13,32.8,20.7c2.8,2.1-2.9-2.4,0.6,0.5c1.2,1,2.4,1.9,3.6,2.9c2.5,2.1,5,4.2,7.4,6.4c4.9,4.4,9.5,9,14,13.8     c4.3,4.6,8.4,9.5,12.4,14.4c2.2,2.7-2.2-3,0.5,0.6c0.9,1.2,1.8,2.5,2.7,3.7c2,2.8,4,5.7,5.9,8.7c7,10.7,12.9,22,18.2,33.6     c1.5,3.2-1.4-3.5,0.3,0.7c0.6,1.4,1.2,2.9,1.7,4.3c1.3,3.3,2.5,6.7,3.6,10.1c2,6.2,3.8,12.4,5.3,18.8c1.5,6.4,2.8,12.9,3.8,19.4     c0.1,0.7,0.5,2,0.4,2.7c0,0.1-0.5-4.2-0.3-1.9c0.2,1.6,0.4,3.2,0.5,4.8c0.4,3.7,0.7,7.4,0.9,11.1c0.6,11.8,0.3,23.6,0.3,35.4     c0,30.5,0.3,61,0,91.5c0,0.6,0,1.2,0,1.8c0,0.7-0.4,6.1-0.1,2.8c0.3-3.3-0.5,1.8-0.7,2.6c-0.1,0.4-1.3,5.1-1.6,5     c-0.3,0,2-3.7,0.7-1.8c-0.3,0.5-0.6,1.2-0.9,1.8c-0.8,1.5-1.7,3-2.6,4.5c-0.3,0.5-0.8,1-1.1,1.6c-1.2,2.2,2.6-2.7,0.7-1     c-1.1,1-2,2.3-3.1,3.3c-0.5,0.5-1,0.9-1.4,1.3c-0.2,0.1-0.3,0.3-0.5,0.4c-1.3,1.1-1.3,1.1,0,0.1c0.5-1.2,1.3-0.9,0,0     c-0.7,0.5-1.4,1-2.2,1.4c-1.3,0.8-2.6,1.5-4,2.2c-3.9,2.1,2.7-0.7-0.7,0.3c-1.5,0.4-2.9,0.9-4.5,1.3c-0.7,0.2-1.3,0.3-2,0.4     c-3.9,0.9,1.4-0.3,1.3-0.1C846.8,947.5,842.1,947.4,841.5,947.4c-10.5,0.1-20.5,9.1-20,20c0.5,10.7,8.8,20.2,20,20     c36.1-0.5,64.8-28.2,67.8-63.9c0.9-11,0.2-22.3,0.2-33.3c0-30.4,0.7-60.8-0.1-91.2c-1.4-57.9-22.9-113.3-60.2-157.4     c-35.6-42.2-86.5-72.3-140.7-82.9c-26.5-5.2-52.8-5-79.6-5c-34.3,0-68.7,0-103,0c-37.2,0-74.4,0-111.7,0     c-19.1,0-38.2-0.5-57.3,0.2c-57.7,2.1-112.9,24.1-156.6,61.8c-41.8,36.1-71.4,87.3-81.4,141.7c-6.5,35.1-4.5,71.2-4.5,106.7     c0,16.4,0,32.7,0,49.1c0,4.4,0,8.7,0.5,13.1c2.1,16.9,9.5,33.2,22.8,44.3c13.4,11.2,29.3,16.9,46.8,16.9c4.7,0,9.3,0,14,0     c20.6,0,41.2,0,61.8,0c31.7,0,63.4,0,95.1,0c37.9,0,75.8,0,113.7,0c39.7,0,79.5,0,119.2,0c36.6,0,73.1,0,109.7,0     c29,0,58.1,0,87.1,0c16.6,0,33.2,0,49.8,0c2.2,0,4.4,0,6.5,0c10.5,0,20.5-9.2,20-20C861,956.5,852.7,947.4,841.5,947.4z" id="XMLID_19_"/></g></g></g></svg>